<svg xmlns="http://www.w3.org/2000/svg" width="1485" height="1042" viewBox="0 0 1485 1042" fill="none"><g clip-path="url(#clip0_216_2)"><path d="M57.2799 929.037L32.8419 952.137V989.164H0V794.258H32.8419V911.948L100.882 848.901H140.299L81.7169 907.763L145.749 989.163H105.839L57.2799 929.037Z" fill="black"></path><path d="M315.411 929.564H205.527C207.138 939.428 212.554 948.266 220.613 954.178C229.462 960.443 240.123 963.631 250.958 963.25C257.986 963.443 264.977 962.188 271.498 959.563C278.019 956.937 283.93 952.998 288.864 947.99L306.444 968.209C300.031 975.809 291.808 981.674 282.533 985.263C270.702 989.594 258.124 991.515 245.539 990.911C232.954 990.307 220.617 987.191 209.255 981.747C197.913 976.004 188.464 967.116 182.038 956.147C174.673 942.84 171.444 927.637 172.766 912.485C174.087 897.333 179.899 882.919 189.458 871.088C191.584 868.589 193.938 866.293 196.49 864.231C208.406 854.772 222.817 848.987 237.966 847.582C253.114 846.177 268.344 849.213 281.796 856.319C292.451 862.249 301.196 871.091 307.006 881.812C313.2 893.517 316.276 906.62 315.938 919.858C315.938 922.109 315.763 925.345 315.411 929.564ZM218.327 882.938C210.993 889.292 206.271 898.135 205.07 907.763H284.676C283.561 898.254 278.979 889.49 271.806 883.149C264.222 877.063 254.789 873.745 245.064 873.745C235.34 873.745 225.907 877.063 218.323 883.149L218.327 882.938Z" fill="black"></path><path d="M498.925 848.9L433.24 1000.49C427.122 1015.72 419.679 1026.45 410.912 1032.66C401.611 1039.03 390.534 1042.29 379.266 1041.98C372.206 1041.94 365.198 1040.75 358.52 1038.46C352.317 1036.52 346.59 1033.3 341.711 1029L354.862 1004.85C358.112 1007.86 361.891 1010.24 366.009 1011.88C370.13 1013.6 374.551 1014.5 379.019 1014.52C384.162 1014.72 389.218 1013.15 393.33 1010.05C397.962 1005.95 401.574 1000.82 403.879 995.072L406.235 989.551L345.052 848.9H379.195L423.324 952.665L467.699 848.9H498.925Z" fill="black"></path><path d="M656.561 856.25C667.229 862.1 676.019 870.854 681.914 881.497C688.213 892.995 691.389 905.943 691.126 919.051C691.371 932.202 688.196 945.191 681.913 956.746C676.042 967.434 667.248 976.228 656.561 982.098C645.316 988.169 632.698 991.245 619.921 991.029C610.875 991.128 601.899 989.431 593.514 986.036C585.68 982.789 578.78 977.64 573.436 971.056V989.165H542.176V794.258H575.018V865.99C580.491 859.875 587.269 855.069 594.85 851.925C602.808 848.692 611.331 847.078 619.921 847.178C632.711 847.005 645.329 850.13 656.561 856.25V856.25ZM646.012 950.838C653.567 941.97 657.716 930.701 657.716 919.051C657.716 907.401 653.567 896.132 646.012 887.264C642.163 883.276 637.521 880.138 632.385 878.054C627.249 875.97 621.733 874.986 616.193 875.164C608.81 875.081 601.534 876.936 595.093 880.544C588.763 884.156 583.583 889.482 580.149 895.91C576.519 903.076 574.627 910.996 574.627 919.03C574.627 927.063 576.519 934.983 580.149 942.149C583.583 948.577 588.763 953.903 595.093 957.515C601.534 961.123 608.81 962.978 616.193 962.895C621.736 963.086 627.257 962.111 632.4 960.033C637.542 957.956 642.192 954.822 646.047 950.834L646.012 950.838Z" fill="black"></path><path d="M876.472 929.564H766.412C768.034 939.432 773.464 948.27 781.533 954.178C790.363 960.455 801.017 963.644 811.844 963.25C818.898 963.474 825.922 962.237 832.475 959.616C839.028 956.996 844.968 953.05 849.924 948.024L867.506 968.243C861.099 975.851 852.874 981.717 843.595 985.297C831.763 989.629 819.185 991.549 806.6 990.945C794.015 990.341 781.678 987.225 770.316 981.781C758.985 976.035 749.548 967.148 743.135 956.181C735.739 942.868 732.498 927.646 733.826 912.475C735.155 897.303 740.993 882.877 750.59 871.051C752.718 868.565 755.072 866.281 757.623 864.23C769.525 854.786 783.921 849.011 799.05 847.613C814.18 846.214 829.39 849.251 842.823 856.353C853.478 862.283 862.224 871.126 868.035 881.846C874.283 893.525 877.419 906.615 877.142 919.857C877.137 922.11 876.821 925.345 876.472 929.564ZM779.423 882.938C772.065 889.277 767.328 898.126 766.131 907.763H845.74C844.626 898.254 840.043 889.49 832.87 883.149C825.294 877.059 815.866 873.739 806.146 873.739C796.426 873.739 786.997 877.059 779.422 883.149L779.423 882.938Z" fill="black"></path><path d="M926.54 984.839C922.902 981.302 920.606 976.61 920.047 971.567C919.488 966.524 920.7 961.443 923.475 957.195C926.25 952.947 930.416 949.797 935.259 948.282C940.102 946.768 945.321 946.985 950.021 948.896C954.722 950.807 958.612 954.293 961.025 958.756C963.438 963.22 964.224 968.384 963.248 973.363C962.272 978.342 959.595 982.828 955.676 986.05C951.757 989.273 946.839 991.033 941.765 991.028C938.942 991.068 936.14 990.54 933.525 989.477C930.91 988.414 928.535 986.838 926.54 984.84V984.839Z" fill="black"></path><path d="M1121.76 862.157C1132.71 872.073 1138.17 887.006 1138.15 906.957V989.168H1107.17V972.111C1102.95 978.393 1096.97 983.286 1089.98 986.176C1072.38 992.858 1052.91 992.682 1035.44 985.683C1028.07 982.5 1021.75 977.31 1017.19 970.704C1012.9 964.289 1010.65 956.722 1010.75 949.004C1010.56 943.203 1011.73 937.437 1014.17 932.172C1016.61 926.907 1020.26 922.29 1024.82 918.694C1034.19 911.075 1048.95 907.266 1069.09 907.266H1105.34V905.156C1105.6 900.972 1104.95 896.781 1103.42 892.876C1101.9 888.971 1099.54 885.445 1096.51 882.546C1090.64 877.307 1081.96 874.67 1070.39 874.67C1062.49 874.674 1054.65 875.92 1047.15 878.362C1040.12 880.504 1033.56 883.978 1027.85 888.594L1014.98 864.683C1022.94 858.788 1031.93 854.424 1041.49 851.814C1052.17 848.8 1063.23 847.297 1074.33 847.348C1095 847.328 1110.81 852.264 1121.76 862.157ZM1091.8 961.457C1098.08 957.84 1102.87 952.124 1105.34 945.317V929.036H1071.44C1052.53 929.036 1043.07 935.248 1043.07 947.672C1043 950.413 1043.6 953.129 1044.83 955.582C1046.05 958.034 1047.86 960.148 1050.1 961.737C1055.93 965.542 1062.84 967.377 1069.79 966.972C1077.49 967.162 1085.1 965.254 1091.8 961.452V961.457Z" fill="black"></path><path d="M1204.54 820.138C1202.62 818.33 1201.09 816.15 1200.05 813.731C1199.01 811.313 1198.47 808.707 1198.47 806.073C1198.47 803.439 1199.01 800.833 1200.05 798.414C1201.09 795.996 1202.62 793.816 1204.54 792.008C1208.59 788.226 1213.97 786.192 1219.52 786.347C1225 786.18 1230.34 788.103 1234.46 791.727C1236.46 793.546 1238.03 795.778 1239.07 798.268C1240.12 800.758 1240.61 803.446 1240.51 806.144C1240.4 811.311 1238.28 816.233 1234.6 819.858C1232.62 821.819 1230.26 823.355 1227.67 824.37C1225.07 825.386 1222.3 825.861 1219.51 825.765C1213.98 825.928 1208.6 823.907 1204.54 820.138V820.138ZM1202.95 848.901H1235.8V989.165H1202.95V848.901Z" fill="black"></path><path d="M1413.12 288.968C1427.2 288.968 1440.97 284.792 1452.68 276.969C1464.39 269.145 1473.51 258.025 1478.9 245.015C1484.29 232.005 1485.7 217.689 1482.95 203.878C1480.21 190.066 1473.43 177.38 1463.47 167.422C1453.51 157.465 1440.82 150.683 1427.01 147.936C1413.2 145.189 1398.89 146.599 1385.88 151.988C1372.86 157.377 1361.74 166.503 1353.92 178.211C1346.1 189.92 1341.92 203.686 1341.92 217.768C1341.92 236.651 1349.43 254.76 1362.78 268.113C1376.13 281.465 1394.24 288.967 1413.12 288.968V288.968ZM1191.95 348.5C1216.23 316.151 1231.03 277.677 1234.67 237.391C1238.32 197.105 1230.67 156.6 1212.59 120.416C1194.51 84.2326 1166.7 53.8006 1132.3 32.5318C1097.89 11.263 1058.24 -0.00186242 1017.79 3.85833e-07H726.149C707.784 -0.00188756 690.095 6.92484 676.614 19.3965C663.134 31.8681 654.855 48.9665 653.431 67.276C653.431 67.548 653.431 67.794 653.431 68.04V73.24V651.281C653.426 660.906 655.318 670.437 658.999 679.329C662.68 688.222 668.078 696.302 674.883 703.108C681.689 709.913 689.769 715.311 698.662 718.992C707.554 722.673 717.085 724.565 726.71 724.56H1025.07C1054.61 723.602 1083.65 716.621 1110.41 704.044C1137.16 691.468 1161.07 673.561 1180.66 651.421C1184.6 646.991 1188.36 642.384 1191.91 637.673C1220.23 599.964 1235.55 554.08 1235.55 506.92C1235.55 459.76 1220.23 413.876 1191.91 376.167C1188.4 371.478 1184.69 366.942 1180.8 362.559C1184.65 357.941 1188.36 353.253 1191.95 348.494V348.5ZM725.936 723.9C714.021 723.92 702.284 721.01 691.758 715.426C702.284 721.01 714.021 723.92 725.936 723.9V723.9C726.033 724.017 726.172 724.093 726.323 724.111C726.172 724.093 726.033 724.017 725.935 723.9H725.936ZM1017.79 578.01H799.777V435.28H1023.17C1041.57 436.694 1058.7 445.178 1070.98 458.953C1083.26 472.727 1089.72 490.721 1089.02 509.16C1088.32 527.599 1080.51 545.051 1067.22 557.853C1053.93 570.656 1036.2 577.816 1017.75 577.83L1017.79 578.01ZM1018.07 289.01H799.777V146.277L1022.81 146.523C1041.35 147.691 1058.69 156.034 1071.17 169.781C1083.65 183.528 1090.29 201.597 1089.67 220.155C1089.04 238.712 1081.21 256.296 1067.84 269.176C1054.47 282.057 1036.6 289.219 1018.03 289.143L1018.07 289.01ZM1413.26 433.71C1432.16 433.729 1450.27 441.249 1463.62 454.618C1476.97 467.988 1484.46 486.111 1484.45 505.004C1484.44 523.897 1476.93 542.013 1463.57 555.369C1450.21 568.725 1432.09 576.228 1413.19 576.228C1394.3 576.228 1376.18 568.725 1362.82 555.369C1349.45 542.013 1341.94 523.897 1341.93 505.004C1341.92 486.111 1349.42 467.988 1362.77 454.618C1376.12 441.249 1394.23 433.729 1413.12 433.71H1413.26ZM72.963 3.00101C63.3801 2.99628 53.8901 4.88029 45.0357 8.54535C36.1812 12.2104 28.1359 17.5846 21.3598 24.3608C14.5836 31.137 9.20938 39.1823 5.54432 48.0367C1.87926 56.8911 -0.00472286 66.3811 8.89094e-06 75.964V650.09C8.3199e-06 659.67 1.88695 669.157 5.55323 678.008C9.21951 686.86 14.5933 694.902 21.3677 701.676C28.1421 708.451 36.1845 713.825 45.0357 717.491C53.8868 721.157 63.3735 723.044 72.954 723.044C82.5344 723.044 92.0211 721.157 100.872 717.491C109.724 713.825 117.766 708.451 124.54 701.676C131.315 694.902 136.688 686.86 140.355 678.008C144.021 669.157 145.908 659.67 145.908 650.09L145.89 75.952C145.899 66.3707 144.019 56.8816 140.358 48.0275C136.697 39.1733 131.326 31.1278 124.552 24.3512C117.779 17.5746 109.736 12.1998 100.884 8.5343C92.0314 4.86877 82.5432 2.98441 72.9619 2.98901L72.963 3.00101ZM561.023 24.732C554.253 17.951 546.212 12.5714 537.361 8.90097C528.509 5.23052 519.021 3.34125 509.439 3.34125C499.857 3.34125 490.369 5.23052 481.517 8.90097C472.666 12.5714 464.625 17.951 457.855 24.732L167.832 310.031C154.097 323.98 146.366 342.751 146.294 362.327C146.222 381.903 153.813 400.731 167.445 414.781L457.467 700.092C464.229 706.923 472.274 712.351 481.14 716.064C490.006 719.777 499.518 721.701 509.13 721.726C518.742 721.751 528.265 719.877 537.15 716.211C546.035 712.545 554.109 707.16 560.907 700.364C567.705 693.568 573.093 685.496 576.761 676.612C580.43 667.728 582.307 658.206 582.285 648.594C582.263 638.982 580.341 629.469 576.631 620.602C572.922 611.735 567.496 603.688 560.667 596.924L322.477 362.6L561.057 127.853C567.835 121.084 573.211 113.044 576.878 104.194C580.545 95.3448 582.43 85.859 582.427 76.2798C582.424 66.7005 580.532 57.216 576.859 48.3689C573.186 39.5218 567.804 31.4859 561.022 24.721L561.023 24.732Z" fill="url(#paint0_linear_216_2)"></path></g><defs><linearGradient id="paint0_linear_216_2" x1="742.226" y1="724.56" x2="742.226" y2="0" gradientUnits="userSpaceOnUse"><stop stop-color="#00D897"></stop><stop offset="0.09" stop-color="#00E39B"></stop><stop offset="0.24" stop-color="#00E6B4"></stop><stop offset="0.42" stop-color="#00E8C8"></stop><stop offset="0.69" stop-color="#00E6E6"></stop><stop offset="0.84" stop-color="#00E1F0"></stop><stop offset="1" stop-color="#00DCF0"></stop></linearGradient><clipPath id="clip0_216_2"><rect width="1484.33" height="1042" fill="white"></rect></clipPath></defs></svg>